<svg fill="#000000" height="100px" width="100px" version="1.1" id="Layer_1" xmlns="http://www.w3.org/2000/svg" xmlns:xlink="http://www.w3.org/1999/xlink" viewBox="0 0 512 512" xml:space="preserve" transform="rotate(180)"><g id="SVGRepo_bgCarrier" stroke-width="0"></g><g id="SVGRepo_tracerCarrier" stroke-linecap="round" stroke-linejoin="round"></g><g id="SVGRepo_iconCarrier"> <g> <g> <path d="M507.089,4.978c-3.731-3.732-9.002-5.488-14.225-4.742C434.877,8.52,382.448,34.676,341.249,75.877 c-8.279,8.281-317.653,317.655-326.518,326.52C5.231,411.896,0,424.524,0,437.958s5.231,26.063,14.731,35.562l23.707,23.707 c9.805,9.803,22.682,14.706,35.56,14.706s25.757-4.902,35.562-14.706c8.864-8.864,318.239-318.239,326.519-326.519 c41.298-41.298,67.493-93.688,75.752-151.505C512.578,13.979,510.821,8.709,507.089,4.978z M85.853,473.519 c-6.537,6.537-17.172,6.537-23.707,0l-23.707-23.707c-3.166-3.166-4.911-7.376-4.911-11.854c0-4.477,1.745-8.687,4.911-11.854 l200.158-200.158l47.415,47.415L85.853,473.519z M309.718,249.654l-47.415-47.415l78.946-78.946l47.415,47.415L309.718,249.654z M412.372,147l-47.415-47.415c30.369-30.37,67.73-51.394,109.111-61.593C463.868,79.24,442.809,116.564,412.372,147z"></path> </g> </g> </g></svg>