<svg width="280" height="120" viewBox="0 0 280 120" fill="none" xmlns="http://www.w3.org/2000/svg">
<path d="M198.048 94.3683C198.048 93.2637 197.152 92.3683 196.048 92.3683H178.536V106.486H196.048C197.152 106.486 198.048 105.591 198.048 104.486V94.3683Z" fill="#D9D9D9"/>
<path d="M188.64 104.257L193.166 95.8977H184.114L188.64 104.257Z" fill="black"/>
<path d="M31.7178 24.2884H249.948C250.016 24.2884 250.075 24.2892 250.126 24.2894L278.421 108.167C278.473 108.322 278.5 108.484 278.5 108.647V118.5H1.5V107.456L1.50586 107.326C1.51719 107.196 1.54544 107.068 1.58984 106.946L31.5342 24.2903C31.5868 24.2902 31.6473 24.2884 31.7178 24.2884Z" fill="black" fill-opacity="0.7" stroke="black" stroke-width="3"/>
<rect x="62.438" y="37.9145" width="155.122" height="46.6284" rx="3" fill="#86918B"/>
<path d="M109.474 51.0032L113.092 47.731L100.429 47.731L104.047 51.0032L109.474 51.0032Z" fill="black"/>
<path d="M110.716 57.8981L113.882 61.6377V48.549L110.716 52.2887L110.716 57.8981Z" fill="black"/>
<path d="M110.716 72.6228L113.882 76.3624V63.2738L110.716 67.0134L110.716 72.6228Z" fill="black"/>
<path d="M103.254 73.0903L99.6357 76.3625L112.299 76.3625L108.681 73.0903L103.254 73.0903Z" fill="black"/>
<path d="M104.295 60.8196L102.802 62.4557L104.227 64.0918L110.807 64.0918L112.3 62.4557L110.807 60.8196L104.295 60.8196Z" fill="black"/>
<path d="M88.1037 73.0903L91.7217 76.3625L79.0587 76.3625L82.6767 73.0903L88.1037 73.0903Z" fill="black"/>
<path d="M88.1037 51.003L91.7217 47.7308L79.0587 47.7308L82.6767 51.003L88.1037 51.003Z" fill="black"/>
<path d="M89.3467 66.1951L92.5124 62.4555V75.5442L89.3467 71.8046L89.3467 66.1951Z" fill="black"/>
<path d="M89.3467 52.2885L92.5124 48.5489V61.6376L89.3467 57.8979L89.3467 52.2885Z" fill="black"/>
<path d="M81.4326 66.1951L78.2669 62.4555V75.5442L81.4326 71.8046L81.4326 66.1951Z" fill="black"/>
<path d="M81.4326 52.2885L78.2669 48.5489V61.6376L81.4326 57.8979L81.4326 52.2885Z" fill="black"/>
<path d="M126.092 73.0903L129.71 76.3625L117.047 76.3625L120.665 73.0903L126.092 73.0903Z" fill="black"/>
<path d="M125.754 50.1851L128.92 46.913L117.84 46.913L121.006 50.1851L125.754 50.1851Z" fill="black"/>
<path d="M127.337 66.1953L130.503 62.4557V75.5444L127.337 71.8047L127.337 66.1953Z" fill="black"/>
<path d="M127.337 52.2887L130.503 48.5491V61.6377L127.337 57.8981L127.337 52.2887Z" fill="black"/>
<path d="M119.423 66.1953L116.258 62.4557V75.5444L119.423 71.8047L119.423 66.1953Z" fill="black"/>
<path d="M119.423 52.2887L116.258 48.5491V61.6377L119.423 57.8981L119.423 52.2887Z" fill="black"/>
<ellipse cx="96.0753" cy="57.1384" rx="1.18716" ry="1.22706" fill="black"/>
<ellipse cx="96.0753" cy="66.9549" rx="1.18716" ry="1.22706" fill="black"/>
<path d="M180.704 51.0032L184.322 47.731L171.659 47.731L175.277 51.0032L180.704 51.0032Z" fill="black"/>
<path d="M181.946 57.8981L185.112 61.6377V48.549L181.946 52.2887L181.946 57.8981Z" fill="black"/>
<path d="M181.946 72.6228L185.112 76.3624V63.2738L181.946 67.0134L181.946 72.6228Z" fill="black"/>
<path d="M174.484 73.0903L170.866 76.3625L183.529 76.3625L179.911 73.0903L174.484 73.0903Z" fill="black"/>
<path d="M175.525 60.8196L174.032 62.4557L175.457 64.0918L182.037 64.0918L183.529 62.4557L182.037 60.8196L175.525 60.8196Z" fill="black"/>
<path d="M159.334 73.0903L162.952 76.3625L150.289 76.3625L153.907 73.0903L159.334 73.0903Z" fill="black"/>
<path d="M159.334 51.003L162.952 47.7308L150.289 47.7308L153.907 51.003L159.334 51.003Z" fill="black"/>
<path d="M160.577 66.1951L163.742 62.4555V75.5442L160.577 71.8046L160.577 66.1951Z" fill="black"/>
<path d="M160.577 52.2884L163.742 48.5488V61.6375L160.577 57.8979L160.577 52.2884Z" fill="black"/>
<path d="M152.663 66.1951L149.497 62.4555V75.5442L152.663 71.8046L152.663 66.1951Z" fill="black"/>
<path d="M152.663 52.2884L149.497 48.5488V61.6375L152.663 57.8979L152.663 52.2884Z" fill="black"/>
<path d="M197.322 73.0903L200.94 76.3625L188.277 76.3625L191.895 73.0903L197.322 73.0903Z" fill="black"/>
<path d="M196.984 50.1851L200.149 46.913L189.069 46.913L192.235 50.1851L196.984 50.1851Z" fill="black"/>
<path d="M198.567 66.1953L201.733 62.4557V75.5444L198.567 71.8047L198.567 66.1953Z" fill="black"/>
<path d="M198.567 52.2887L201.733 48.5491V61.6377L198.567 57.8981L198.567 52.2887Z" fill="black"/>
<path d="M190.653 66.1953L187.487 62.4557V75.5444L190.653 71.8047L190.653 66.1953Z" fill="black"/>
<path d="M190.653 52.2887L187.487 48.5491V61.6377L190.653 57.8981L190.653 52.2887Z" fill="black"/>
<ellipse cx="167.305" cy="57.1384" rx="1.18716" ry="1.22706" fill="black"/>
<ellipse cx="167.305" cy="66.9549" rx="1.18716" ry="1.22706" fill="black"/>
<path d="M31.2251 0.779297C31.545 0.565392 31.9954 0.450372 32.4761 0.521484L141.162 16.6016C141.339 16.6279 141.519 16.6409 141.699 16.6396L249.743 15.8711C250.658 15.8646 251.208 16.4428 251.208 16.9385V21.626C251.208 22.1185 250.666 22.6932 249.757 22.6934H32.1958C31.2865 22.6933 30.7446 22.1186 30.7446 21.626V1.56738C30.7447 1.2803 30.9056 0.993098 31.2251 0.779297Z" fill="#D9D9D9" stroke="black"/>
<path d="M81.9526 94.3683C81.9526 93.2637 82.8481 92.3683 83.9526 92.3683H101.465V106.486H83.9526C82.8481 106.486 81.9526 105.591 81.9526 104.486V94.3683Z" fill="#D9D9D9"/>
<path d="M91.7069 94.5974L96.0771 102.957H87.3367L91.7069 94.5974Z" fill="black"/>
<path d="M111.22 92.3683H130.732V106.486H111.22V92.3683Z" fill="#D9D9D9"/>
<path d="M120.627 96.4549C120.076 96.4549 119.537 96.6292 119.079 96.9558C118.62 97.2824 118.263 97.7466 118.052 98.2896C117.841 98.8327 117.786 99.4303 117.893 100.007C118.001 100.583 118.266 101.113 118.656 101.529C119.046 101.944 119.543 102.227 120.083 102.342C120.624 102.457 121.185 102.398 121.694 102.173C122.203 101.948 122.639 101.567 122.945 101.078C123.251 100.589 123.415 99.6433 123.415 99.0555" stroke="black"/>
<path d="M122.37 99.7986L123.415 99.0555L124.461 99.7986" stroke="black"/>
<path d="M149.268 92.3683H168.78V106.486H149.268V92.3683Z" fill="#D9D9D9"/>
<path d="M159.025 99.4271L153.276 103.61L153.276 95.2445L159.025 99.4271Z" fill="black"/>
<line x1="160.222" y1="94.5974" x2="160.222" y2="104.257" stroke="black"/>
<line x1="161.616" y1="94.5974" x2="161.616" y2="104.257" stroke="black"/>
<path d="M198.048 94.3683C198.048 93.2637 197.152 92.3683 196.048 92.3683H178.536V106.486H196.048C197.152 106.486 198.048 105.591 198.048 104.486V94.3683Z" fill="#D9D9D9"/>
<path d="M188.64 104.257L193.166 95.8977H184.114L188.64 104.257Z" fill="black"/>
</svg>
