<svg width="100" height="74" viewBox="0 0 100 74" fill="none" xmlns="http://www.w3.org/2000/svg">
<path d="M15.4209 19.5H84.5791C86.9396 19.5 89.1938 20.4819 90.8018 22.21L92.96 24.5293L94.9043 27.0957L96.0439 29.0605C96.3955 29.6672 96.6708 30.3151 96.8633 30.9893L97.6152 33.627L98.2764 37.7031L98.5 42.4434V46.0967L98.3105 50.2344C98.2887 50.711 98.2273 51.1852 98.126 51.6514L97.624 53.9541L96.542 57.9951L94.7871 62.1221L94.1885 63.3535C94.037 63.6647 93.8668 63.9666 93.6787 64.2568L93.4854 64.543L93.4316 64.6191C93.0798 65.1166 92.6754 65.5753 92.2256 65.9863L91.4678 66.6777L89.9219 67.8672L86.5742 70.1963L85.9844 70.5361C84.6963 71.2758 83.2363 71.665 81.751 71.665H18.249C16.7637 71.665 15.3037 71.2758 14.0156 70.5361L13.4248 70.1963L10.0771 67.8672L8.53125 66.6777L7.77441 65.9863C7.3246 65.5753 6.92019 65.1166 6.56836 64.6191L6.51465 64.543C6.24834 64.1664 6.01332 63.7682 5.81152 63.3535L5.21191 62.1221L3.45703 57.9951L2.375 53.9541L1.87402 51.6514C1.7727 51.1852 1.71126 50.711 1.68945 50.2344L1.5 46.0967V42.4434L1.72266 37.7031L2.38379 33.627L3.13672 30.9893C3.32923 30.3151 3.60446 29.6672 3.95605 29.0605L5.09473 27.0957L7.03906 24.5293L9.19824 22.21C10.8062 20.4819 13.0604 19.5 15.4209 19.5Z" fill="black" stroke="white" stroke-width="3" stroke-linecap="round" stroke-linejoin="round"/>
<path d="M80.5475 2H50H19.4525C17.9632 2 16.545 2.63688 15.5556 3.75L14 5.5L13 7L12.3857 8.06105C11.9819 8.75853 11.6639 9.50227 11.4386 10.2761L11.1389 11.3056L10.7419 12.6691C10.5809 13.222 10.468 13.7878 10.4044 14.3601L10.25 15.75C10.1166 16.9503 11.0562 18 12.2638 18H50H87.9844C89.0547 18 89.8828 17.062 89.75 16L89.5 14L88.8611 11.5556L88.5992 10.5536C88.3493 9.59722 87.9589 8.6832 87.4408 7.84134L87.1111 7.30556L86.4597 6.24705C86.1538 5.74997 85.805 5.28063 85.4172 4.84439L84.4444 3.75C83.455 2.63688 82.0368 2 80.5475 2Z" fill="black"/>
<path d="M80.5475 3.5C80.5475 2.5 80.5475 1.5 80.5475 0.5C77.563 0.5 74.5785 0.5 71.5941 0.5C64.396 0.5 57.198 0.5 50 0.5C39.8175 0.5 29.635 0.5 19.4525 0.5C17.5603 0.491679 15.6854 1.33365 14.4344 2.75345C13.9159 3.33679 13.3974 3.92012 12.8789 4.50345L12.7519 4.66795C12.4186 5.16795 12.0853 5.66795 11.7519 6.16795L11.7019 6.24845C11.4971 6.60213 11.2923 6.95582 11.0876 7.3095C10.6237 8.11059 10.2571 8.96795 9.9984 9.85678C9.97088 9.95133 9.94335 10.0459 9.91583 10.1404C9.84345 10.389 9.77107 10.6376 9.69868 10.8863C9.56636 11.3408 9.43403 11.7953 9.30171 12.2498C9.11668 12.8852 8.98667 13.5367 8.91361 14.1945C8.86213 14.6578 8.81065 15.1211 8.75917 15.5844C8.48076 17.5887 10.2411 19.5554 12.2638 19.5C24.8426 19.5 37.4213 19.5 50 19.5C62.6615 19.5 75.323 19.5 87.9844 19.5C89.8824 19.5527 91.5262 17.6907 91.2384 15.8139C91.2384 15.8139 91.2384 15.8139 91.2384 15.8139C91.1551 15.1473 91.0718 14.4806 90.9884 13.8139L90.9513 13.6207C90.7383 12.8059 90.5253 11.9911 90.3124 11.1763C90.2251 10.8423 90.1378 10.5083 90.0505 10.1743C89.7638 9.07639 89.3132 8.02147 88.7183 7.0552C88.625 6.90361 88.5318 6.75203 88.4385 6.60044C88.4218 6.57343 88.4052 6.54642 88.3886 6.51941C88.1715 6.16657 87.9543 5.81374 87.7372 5.4609C87.3857 4.88961 86.984 4.34918 86.5384 3.84785C86.2141 3.48305 85.8898 3.11825 85.5656 2.75345C85.5656 2.75346 85.5656 2.75346 85.5656 2.75346C84.3147 1.33365 82.4397 0.491678 80.5475 0.5C80.5475 1.5 80.5475 2.5 80.5475 3.5C81.5941 3.49532 82.6315 3.96121 83.3233 4.74654C83.3233 4.74654 83.3233 4.74654 83.3233 4.74654C83.6476 5.11134 83.9719 5.47614 84.2961 5.84094C84.6255 6.21149 84.9224 6.61094 85.1822 7.0332C85.3994 7.38603 85.6165 7.73887 85.8336 8.0917C85.8502 8.11871 85.8669 8.14572 85.8835 8.17273C85.9768 8.32432 86.0701 8.4759 86.1633 8.62749C86.603 9.34169 86.9361 10.1214 87.148 10.9329C87.2353 11.2669 87.3226 11.6009 87.4099 11.9349C87.6228 12.7497 87.8358 13.5645 88.0487 14.3793L88.0116 14.1861C88.0949 14.8527 88.1782 15.5194 88.2616 16.1861C88.2616 16.1861 88.2616 16.1861 88.2616 16.1861C88.289 16.3432 88.1438 16.5078 87.9844 16.5C75.323 16.5 62.6615 16.5 50 16.5C37.4213 16.5 24.8426 16.5 12.2638 16.5C11.9644 16.5116 11.6963 16.212 11.7408 15.9156C11.7408 15.9156 11.7408 15.9156 11.7408 15.9156C11.7923 15.4524 11.8438 14.9891 11.8953 14.5258C11.9493 14.0396 12.0454 13.5581 12.1821 13.0884C12.3144 12.6339 12.4468 12.1794 12.5791 11.7249C12.6515 11.4762 12.7239 11.2276 12.7962 10.979C12.8238 10.8845 12.8513 10.7899 12.8788 10.6954C13.07 10.0384 13.341 9.40472 13.6838 8.81261C13.8886 8.45892 14.0934 8.10524 14.2981 7.75155L14.2481 7.83205C14.5814 7.33205 14.9147 6.83205 15.2481 6.33205L15.1211 6.49655C15.6396 5.91321 16.1582 5.32988 16.6767 4.74655C16.6767 4.74655 16.6767 4.74655 16.6767 4.74655C17.3685 3.96121 18.406 3.49532 19.4525 3.5C29.635 3.5 39.8175 3.5 50 3.5C57.198 3.5 64.396 3.5 71.5941 3.5C74.5785 3.5 77.563 3.5 80.5475 3.5ZM80.5475 0.5V3.5V0.5Z" fill="white"/>
</svg>
