<svg width="200" height="123" viewBox="0 0 200 123" fill="none" xmlns="http://www.w3.org/2000/svg">
<path d="M11.3594 1.5H188.641C193.015 1.5 196.675 4.81972 197.101 9.17285L197.19 10.1045L198.499 50L197.19 89.8945L197.101 90.8271C196.675 95.1803 193.015 98.5 188.641 98.5H11.3594C6.98547 98.5 3.32525 95.1803 2.89941 90.8271L2.80859 89.8945L1.5 50L2.80859 10.1045L2.89941 9.17285C3.32525 4.81973 6.98547 1.5 11.3594 1.5Z" fill="black" stroke="white" stroke-width="3"/>
<path d="M40.8896 98.5V109.878C40.8896 110.08 40.9144 110.282 40.9629 110.479L41.6475 113.249L41.6611 113.305L41.6797 113.358L42.3936 115.525L42.4268 115.626L42.4736 115.721L45.2588 121.354C45.2836 121.404 45.3118 121.452 45.3398 121.5H12.2969C12.3248 121.452 12.3522 121.403 12.377 121.354L15.1631 115.721L15.21 115.626L15.2432 115.525L15.957 113.358L15.9746 113.305L15.9883 113.249L16.6738 110.479C16.7224 110.282 16.7471 110.08 16.7471 109.878V98.5H40.8896Z" fill="black" stroke="white" stroke-width="3"/>
<path d="M182.89 98.5V109.878C182.89 110.08 182.914 110.282 182.963 110.479L183.647 113.249L183.661 113.305L183.68 113.358L184.394 115.525L184.427 115.626L184.474 115.721L187.259 121.354C187.284 121.404 187.312 121.452 187.34 121.5H154.297C154.325 121.452 154.352 121.403 154.377 121.354L157.163 115.721L157.21 115.626L157.243 115.525L157.957 113.358L157.975 113.305L157.988 113.249L158.674 110.479C158.722 110.282 158.747 110.08 158.747 109.878V98.5H182.89Z" fill="black" stroke="white" stroke-width="3"/>
</svg>
