<svg width="145" height="145" viewBox="0 0 145 145" fill="none" xmlns="http://www.w3.org/2000/svg">
<g clip-path="url(#clip0_30_36)">
<path d="M87.4498 35.61C61.4898 25.5 32.2498 38.34 22.1398 64.3C12.0498 90.2 24.8098 119.36 50.6498 129.54C50.8398 129.06 57.8798 111.26 57.8798 111.26" fill="white"/>
<path d="M87.4499 35.61C45.6399 20.28 5.99992 61.52 23.2999 102.59C28.4799 114.65 38.5199 124.45 50.7199 129.34L50.4399 129.46L57.8699 111.25L50.8399 129.61L50.7599 129.81C31.8399 122.88 18.3899 103.74 18.2199 83.56C17.4599 47.53 53.9499 22.1 87.4399 35.6L87.4499 35.61Z" fill="black"/>
<path d="M123.15 82.55C113.04 108.49 83.8201 121.34 57.8701 111.25L94.9201 17.42C120.57 27.69 133.2 56.74 123.15 82.55Z" fill="black"/>
<path d="M123.2 82.57C113.27 108.65 83.45 122.17 57.49 111.41C69.7 81.48 82.73 46.88 94.62 16.73C120.81 26.77 133.51 56.62 123.2 82.56V82.57ZM123.11 82.53C130.43 64.14 125.23 42.02 110.97 28.44C106.31 23.91 100.75 20.33 94.73 17.91L95.42 17.61C83.62 47.5 69.58 81.4 58.16 111.35L57.99 110.97C64.13 113.29 70.71 114.38 77.25 114.23C97.05 113.92 116.04 101.16 123.12 82.53H123.11Z" fill="black"/>
<path d="M44.6599 145.42C51.7399 124.91 64.4699 93.13 72.3199 72.63C80.3499 52.13 92.2999 20.22 100.92 0.210007C93.8399 20.72 81.1099 52.5 73.2599 73C65.2299 93.5 53.2799 125.41 44.6599 145.42Z" fill="black"/>
<path d="M33.64 55.9C34.75 67.3 34.85 79 32.37 90.24L30.09 88.83C34.84 85.19 39.52 81.09 44.87 78.35L45.3 79.25C44.07 79.97 42.91 80.92 41.77 81.86C37.38 85.58 32.94 90.07 28.78 94.07C29.52 90.01 30.39 85.49 30.72 81.4C31.16 77.4 31.01 72.92 30.95 68.87C30.81 64.68 30.44 60.49 29.91 56.34L33.64 55.91V55.9Z" fill="black"/>
<path d="M25.78 69.21C29.14 68.47 32.36 67.43 35.68 66.6L45.54 64.09L46 66.49C39.4 67.31 32.98 69.46 27.16 72.65L25.78 69.2V69.21Z" fill="black"/>
<path d="M50.8999 56.84C50.2099 57.32 50.5299 57.68 50.4999 58.08C50.7699 63.89 50.7599 69.63 50.4599 75.46C50.1399 82.42 45.9399 87.14 40.6599 91.04L40.1899 90.56C42.1299 88.26 44.2899 86.1 45.7799 83.52C47.2299 81 47.9199 78.19 48.1399 75.29C48.4199 70.06 48.4699 64.66 48.0599 59.41L47.9499 58.29C47.8499 57.93 48.0899 57.53 47.3199 57.25L50.8999 56.84Z" fill="black"/>
<path d="M40.23 54.64C40.62 54.9 41.19 54.74 41.61 54.72L42.96 54.62C45.52 54.44 48.4 54.22 50.89 53.82L56.17 52.97C58.41 52.56 60.75 52.35 62.86 51.49C62.82 62.35 64 73.13 64.86 83.96L64.81 83.64C65.29 85.22 64.35 86.98 62.78 87.47C60.83 87.88 58.86 88.24 56.95 88.82L56.02 89.11C55.72 89.24 55.36 89.11 55.21 90.07L54.18 84.65C54.67 85.48 54.95 85.24 55.28 85.25C56.22 85.18 57.26 85.1 58.19 84.96C59.47 84.78 60.75 84.54 62.03 84.32L61.8 84.38C61.8 84.38 61.8 84.38 61.79 84.4C61.78 84.42 61.76 84.46 61.77 84.48C61.77 84.48 61.77 84.44 61.78 84.48C61.39 78.87 60.84 66.44 60.63 60.98C60.53 58.4 60.49 55.81 60.43 53.22L61.89 54.39C56.56 55.39 51.18 56.38 45.76 56.52C44.23 56.56 42.61 56.64 41.09 56.75C40.87 56.77 40.65 56.81 40.45 57.01L40.22 54.63L40.23 54.64Z" fill="black"/>
<path d="M89.78 50.95C86.05 61.35 84.01 72.59 84.83 83.67L83.1 83.71C84.41 73.66 85.57 60.82 95 54.88C103.83 49.19 115.55 56.13 116.49 66.2C116.99 70.83 115.1 75.14 113.02 78.99C110.04 84.7 104.85 89.08 99.34 92.06C95.7 94.06 91.64 95.57 87.65 96.2C91.62 95.09 95.38 93.36 98.74 91.07C103.75 87.66 108 83.27 110.21 77.66C111.65 74.17 112.96 70.41 112.32 66.75C111.38 61.85 106.72 57.25 101.79 57C90.68 57.04 86.3 71.62 84.9 80.76C84.8 81.77 84.82 82.79 84.83 83.81L83.1 83.85C82.44 78.16 82.18 72.42 82.36 66.68C82.58 60.9 83.3 55.12 84.56 49.46L89.79 50.96L89.78 50.95Z" fill="white"/>
</g>
<defs>
<clipPath id="clip0_30_36">
<rect width="145" height="145" fill="white"/>
</clipPath>
</defs>
</svg>
