<svg width="200" height="43" viewBox="0 0 200 43" fill="none" xmlns="http://www.w3.org/2000/svg">
<path d="M4.09082 1.5H195.909C196.439 1.5001 196.922 1.80176 197.154 2.27734C197.214 2.39889 197.255 2.52851 197.277 2.66211L198.255 8.625C198.404 9.53556 198.404 10.4644 198.255 11.375L197.277 17.3379C197.255 17.4715 197.214 17.6011 197.154 17.7227C196.922 18.1982 196.439 18.4999 195.909 18.5H4.09082C3.56143 18.4999 3.07831 18.1982 2.8457 17.7227C2.78624 17.6011 2.74455 17.4715 2.72266 17.3379L1.74512 11.375C1.59586 10.4644 1.59586 9.53556 1.74512 8.625L2.72266 2.66211C2.74455 2.52855 2.78624 2.39893 2.8457 2.27734C3.07831 1.80177 3.56143 1.5001 4.09082 1.5Z" fill="black" stroke="white" stroke-width="3"/>
<path d="M40.8896 18.5V29.8779C40.8896 30.0802 40.9144 30.2822 40.9629 30.4785L41.6475 33.249L41.6611 33.3047L41.6797 33.3584L42.3936 35.5254L42.4268 35.626L42.4736 35.7207L45.2588 41.3535C45.2836 41.4036 45.3118 41.4518 45.3398 41.5H12.2969C12.3248 41.4519 12.3522 41.4035 12.377 41.3535L15.1631 35.7207L15.21 35.626L15.2432 35.5254L15.957 33.3584L15.9746 33.3047L15.9883 33.249L16.6738 30.4785C16.7224 30.2822 16.7471 30.0802 16.7471 29.8779V18.5H40.8896Z" fill="black" stroke="white" stroke-width="3"/>
<path d="M182.89 18.5V29.8779C182.89 30.0802 182.914 30.2822 182.963 30.4785L183.647 33.249L183.661 33.3047L183.68 33.3584L184.394 35.5254L184.427 35.626L184.474 35.7207L187.259 41.3535C187.284 41.4036 187.312 41.4518 187.34 41.5H154.297C154.325 41.4519 154.352 41.4035 154.377 41.3535L157.163 35.7207L157.21 35.626L157.243 35.5254L157.957 33.3584L157.975 33.3047L157.988 33.249L158.674 30.4785C158.722 30.2822 158.747 30.0802 158.747 29.8779V18.5H182.89Z" fill="black" stroke="white" stroke-width="3"/>
</svg>
